<svg xmlns="http://www.w3.org/2000/svg" width="192.008" height="207.011" viewBox="0 0 192.008 207.011"><defs><style>.a{fill:#fff;stroke:#fff;stroke-miterlimit:10;}</style></defs><g transform="translate(4691.501 1934.509)"><path class="a" d="M-4536.54-1856.2c-.171,4.145-.305,6.926-.388,9.709a1.9,1.9,0,0,1-1.045,1.743q-17.349,10.345-34.673,20.731c-.2.121-.4.251-.612.353a1.17,1.17,0,0,1-1.166.01,1.171,1.171,0,0,1-.6-1c-.037-.565-.017-1.134-.021-1.7q-.04-5.879-.082-11.758c0-.67-.052-1.342-.021-2.01a1.484,1.484,0,0,0-.87-1.429q-5.137-3.127-10.249-6.289a23.336,23.336,0,0,0-2.149-1.3,1.267,1.267,0,0,1-.745-1.171,1.267,1.267,0,0,1,.775-1.151c6.454-3.808,12.87-7.676,19.3-11.524,4.384-2.624,8.774-5.237,13.144-7.881a2.119,2.119,0,0,1,2.066-.193c5.461,2.111,10.941,4.175,16.414,6.255,1.094.416,1.25.63,1.2,1.783C-4536.36-1860.3-4536.48-1857.57-4536.54-1856.2Zm-34.407,26.375c.362-.2.609-.332.848-.475q7.287-4.354,14.571-8.713l13.963-8.351a.906.906,0,0,0,.572-.818c.147-4.251.328-8.5.5-12.752.026-.675.018-.677-.64-.928-4.221-1.607-8.446-3.2-12.66-4.829a1.407,1.407,0,0,0-1.381.125q-13.239,7.95-26.5,15.871c-.218.13-.49.206-.623.482.22.139.439.278.66.414,2.654,1.634,5.3,3.278,7.966,4.9a5.2,5.2,0,0,1,2.679,4.695c.012,2.011.038,4.022.049,6.033,0,1.4-.006,2.811-.006,4.341Z"/><path class="a" d="M-4654.43-1854.83l-.328-8.272c-.043-1.044.107-1.287,1.123-1.674q8.322-3.166,16.641-6.34a1.778,1.778,0,0,1,1.709.135q16.251,9.744,32.515,19.462a1.4,1.4,0,0,1,.854,1.2,1.371,1.371,0,0,1-.808,1.23q-3.021,1.842-6.029,3.7c-2.054,1.262-4.1,2.541-6.169,3.775a1.768,1.768,0,0,0-.981,1.692c0,4.488-.045,8.976-.077,13.464,0,.542-.069,1.087-.021,1.623a1.23,1.23,0,0,1-.635,1.168,1.231,1.231,0,0,1-1.327-.091c-2.7-1.664-5.437-3.265-8.158-4.894l-26.78-16.031c-.2-.122-.41-.234-.606-.364a1.3,1.3,0,0,1-.566-1.129q-.166-4.329-.351-8.658Zm45.71,4.626a1.605,1.605,0,0,0-.709-.538c-8.565-5.129-17.144-10.236-25.684-15.4a2.852,2.852,0,0,0-2.878-.27c-3.921,1.576-7.892,3.034-11.844,4.536-.746.284-.746.284-.7,1.112.032.618.069,1.235.1,1.853.149,3.53.309,7.059.429,10.589a1.079,1.079,0,0,0,.644,1.019c1.768,1.026,3.512,2.092,5.266,3.141q11.6,6.94,23.207,13.878c.229.136.433.354.77.317.009-.184.022-.337.023-.49.028-3.172.088-6.344.07-9.515a5.409,5.409,0,0,1,2.821-5.015c2.315-1.387,4.6-2.816,6.9-4.229q.789-.5,1.585-.994Z"/><path class="a" d="M-4611.2-1794.28v-18.88c0-.233-.01-.465.006-.7a1.165,1.165,0,0,1,.58-1.053,1.164,1.164,0,0,1,1.2.02c1.169.532,2.321,1.1,3.479,1.661q5,2.4,9.993,4.818a1.792,1.792,0,0,0,1.719-.029q6.5-3.175,13.028-6.313a3.626,3.626,0,0,1,.5-.234,1.157,1.157,0,0,1,1.054.111,1.157,1.157,0,0,1,.522.922c.019.2.009.412.009.619q0,18.455.016,36.909a2.092,2.092,0,0,1-.957,1.879c-4.68,3.44-9.33,6.918-13.991,10.383-.934.7-1.193.7-2.18.056-4.689-3.068-9.37-6.148-14.073-9.195a1.83,1.83,0,0,1-.952-1.711c.026-5.262.014-10.524.014-15.786v-3.48Zm4.171-14.954c-.014.282-.028.434-.028.586q-.01,15.974-.032,31.948a1.04,1.04,0,0,0,.57.983c3.557,2.309,7.1,4.642,10.652,6.957.7.454.469.508,1.2-.032,3.612-2.681,7.215-5.373,10.837-8.042a1.26,1.26,0,0,0,.6-1.141q-.026-15.24-.016-30.479a1.181,1.181,0,0,0-.069-.667,1.228,1.228,0,0,0-.661.246q-4.288,2.065-8.57,4.144a5.534,5.534,0,0,1-5.087.005q-3.186-1.543-6.381-3.069c-.966-.455-1.936-.915-3.016-1.435Z"/><path class="a" d="M-4578.97-1830.19c0,2.553-.022,5.106.011,7.659a2.191,2.191,0,0,1-1.26,2.128q-6.795,3.8-13.556,7.648a2.431,2.431,0,0,1-2.658-.005q-6.756-3.861-13.554-7.651a2.2,2.2,0,0,1-1.253-2.133q.034-7.7,0-15.4a2.212,2.212,0,0,1,1.262-2.129q6.795-3.8,13.556-7.648a2.428,2.428,0,0,1,2.658.009q6.724,3.839,13.489,7.607a2.288,2.288,0,0,1,1.319,2.251C-4579-1835.3-4578.97-1832.75-4578.97-1830.19Zm-19.318-3.2c-3.013,0-5.829.009-8.645-.009-.426,0-.517.187-.6.534a11.623,11.623,0,0,0,2.18,9.861c.132.179.227.4.515.491Zm6.33,6.061a.324.324,0,0,0,.328.127c2.714,0,5.429-.01,8.144.014.458,0,.577-.2.653-.564a11.648,11.648,0,0,0,.2-4.069,12.282,12.282,0,0,0-2.834-6.28Zm-7.2-1.317c-.1.062-.126.071-.138.091-1.423,2.346-2.838,4.7-4.272,7.036-.17.277-.07.408.131.574a13.2,13.2,0,0,0,1.926,1.346,12.621,12.621,0,0,0,8.7,1.455c-2.139-3.546-4.238-7.016-6.349-10.506Zm1.69-13.779,6.339,10.49a2.425,2.425,0,0,0,.232-.27c1.354-2.24,2.691-4.488,4.063-6.717.23-.373.09-.535-.178-.756a12.7,12.7,0,0,0-8.038-2.978,11.742,11.742,0,0,0-2.42.226Zm2.131,16.814a1.415,1.415,0,0,0,.077.3c1.272,2.109,2.556,4.211,3.811,6.329.222.375.452.329.775.2a12.486,12.486,0,0,0,6.989-6.384c.068-.141.154-.274.033-.447Zm.474-9.365c-.133-.236-.2-.369-.28-.5l-3.618-5.983c-.334-.55-.341-.555-.978-.308a12.506,12.506,0,0,0-6.5,5.5,4.909,4.909,0,0,0-.594,1.29Z"/><path class="a" d="M-4579.67-1766.14c-.054.151-.11.323-.177.491l-14.705,36.921c-.048.119-.093.241-.15.357a.576.576,0,0,1-.548.373.565.565,0,0,1-.53-.4c-.094-.212-.174-.431-.259-.647q-7.217-18.264-14.432-36.528c-.038-.1-.064-.2-.108-.29a.556.556,0,0,1,.122-.766.663.663,0,0,1,.8.057c.975.614,1.957,1.217,2.937,1.825,3.627,2.252,7.262,4.493,10.874,6.768a1.2,1.2,0,0,0,1.483,0q6.638-4.2,13.31-8.358a3.36,3.36,0,0,1,.612-.349.562.562,0,0,1,.534.063A.563.563,0,0,1-4579.67-1766.14Zm-8.01,8.976-.1-.114c-.22.13-.444.256-.661.391q-1.965,1.227-3.927,2.46a4.774,4.774,0,0,1-5.483-.006c-1.44-.906-2.89-1.8-4.337-2.691-.161-.1-.33-.185-.638-.356l7.606,19.247Z"/><path class="a" d="M-4685.2-1882.94l2.957.518,13.615,2.4,14.628,2.575,8.947,1.578a1.862,1.862,0,0,1,.46.1.6.6,0,0,1,.363.473.6.6,0,0,1-.225.553,3.474,3.474,0,0,1-.688.371c-4.6,2.183-9.185,4.384-13.8,6.523a1.447,1.447,0,0,0-.979,1.587c.126,5.078.207,10.157.3,15.236q.007.348,0,.7a.5.5,0,0,1-.324.488.547.547,0,0,1-.65-.128c-.121-.135-.231-.28-.344-.423q-12.215-15.606-24.427-31.214a3.718,3.718,0,0,1-.372-.5A.541.541,0,0,1-4685.2-1882.94Zm8.589,5.626a1.028,1.028,0,0,0,.34.647q6.078,7.763,12.164,15.519a.1.1,0,0,0,.073.017c.1-.009-.016-.079-.008-.075v-5.661a4.506,4.506,0,0,1,2.8-4.375c1.516-.72,3.035-1.433,4.546-2.161.133-.064.386-.063.343-.352Z"/><path class="a" d="M-4531.23-1858.74c.037-2.552.044-5.1.127-7.656a1.341,1.341,0,0,0-.943-1.452c-4.732-2.2-9.44-4.457-14.155-6.7-.346-.164-.825-.256-.767-.756.064-.55.576-.5.983-.574q11.436-2.008,22.872-4.021l16.881-2.97a2.442,2.442,0,0,1,.466-.077.53.53,0,0,1,.5.243.531.531,0,0,1,.007.557,3.711,3.711,0,0,1-.416.563q-12.185,15.575-24.372,31.149c-.064.082-.13.162-.191.246a.666.666,0,0,1-.8.347c-.35-.117-.345-.417-.341-.706.011-.877.031-1.753.033-2.63.006-1.856,0-3.712,0-5.568Zm16.87-18.409-.073-.166-20.27,3.563c.131.284.349.318.525.4,1.514.722,3.038,1.424,4.542,2.164a4.43,4.43,0,0,1,2.664,4.145c.014.772-.036,1.544-.041,2.317-.008,1.194,0,2.389,0,3.748Z"/><path class="a" d="M-4560.29-1912.58l-6.442-3.6q-3.186-1.791-6.365-3.595c-4.844-2.735-9.695-5.459-14.529-8.211a14.187,14.187,0,0,0-6.5-1.956,13.651,13.651,0,0,0-7.412,1.808q-7.736,4.365-15.476,8.721l-7.672,4.306a45.355,45.355,0,0,0-4.357,2.563h-.628a2.1,2.1,0,0,1-2.044-1.42,2,2,0,0,1,.933-2.339c.155-.1.318-.182.477-.272q13.321-7.511,26.639-15.025a17.941,17.941,0,0,1,8.565-2.4,17.2,17.2,0,0,1,8.941,2.188q13.635,7.673,27.25,15.382a2.1,2.1,0,0,1,1.189,1.541,2.019,2.019,0,0,1-.442,1.608,2.019,2.019,0,0,1-1.5.727,6.085,6.085,0,0,1-.628-.025Z"/><path class="a" d="M-4539.22-1767.43a4.352,4.352,0,0,1,1.286-1q13.324-7.427,26.641-14.865a13.189,13.189,0,0,0,6.491-7.942,12.555,12.555,0,0,0,.527-3.585c.025-5.647.035-11.294.062-16.941.017-3.429.057-6.858.081-10.287a2.384,2.384,0,0,0-.047-.844c.023-.823.054-1.646.068-2.469a2.036,2.036,0,0,1,.541-1.5,2.039,2.039,0,0,1,1.459-.651,2.064,2.064,0,0,1,1.521.611,2.063,2.063,0,0,1,.6,1.526c.007,2.785-.025,5.57-.044,8.355-.02,2.939-.052,5.879-.065,8.818-.02,4.41.021,8.821-.053,13.23a16.7,16.7,0,0,1-8.893,15.057c-5.726,3.288-11.526,6.451-17.3,9.669q-4.875,2.719-9.748,5.442a2.4,2.4,0,0,1-1.651.388,2.021,2.021,0,0,1-1.346-.857,2.021,2.021,0,0,1-.3-1.566,5.456,5.456,0,0,1,.178-.587Z"/><path class="a" d="M-4686.84-1825.06c-.007,1.391-.025,2.782-.02,4.173q.025,7.542.064,15.084c.021,3.763-.017,7.53.1,11.29a12.609,12.609,0,0,0,6.776,11.089c4.958,2.836,9.97,5.581,14.959,8.366l11.257,6.286c.181.1.375.181.563.27.219.14.441.276.656.421a1.965,1.965,0,0,1,.656,2.66,2.078,2.078,0,0,1-2.665.842,6.006,6.006,0,0,1-.556-.3q-13.424-7.491-26.843-14.987a16.951,16.951,0,0,1-8.514-11.115,15,15,0,0,1-.434-3.523q-.057-9.63-.116-19.262c-.021-3.713-.028-7.427-.041-11.141,0-.206-.007-.413,0-.619a2.037,2.037,0,0,1,2.011-1.99,2.092,2.092,0,0,1,2.1,1.835C-4686.86-1825.48-4686.86-1825.27-4686.84-1825.06Z"/></g></svg>
