<svg xmlns="http://www.w3.org/2000/svg" width="191.999" height="207" viewBox="0 0 191.999 207"><defs><style>.a{fill:red;stroke:white;stroke-miterlimit:10;}</style></defs><g transform="translate(4691.5 1934.5)"><path class="a" d="M-4536.539-1856.2c-.171,4.145-.305,6.926-.388,9.709a1.9,1.9,0,0,1-1.045,1.743q-17.349,10.345-34.673,20.731c-.2.121-.4.251-.612.353a1.17,1.17,0,0,1-1.761-.992c-.037-.565-.017-1.134-.021-1.7q-.04-5.879-.082-11.758c0-.67-.052-1.342-.021-2.01a1.485,1.485,0,0,0-.87-1.429q-5.136-3.127-10.248-6.289a23.361,23.361,0,0,0-2.149-1.3,1.267,1.267,0,0,1,.031-2.322c6.454-3.808,12.87-7.676,19.3-11.524,4.384-2.624,8.774-5.237,13.144-7.881a2.12,2.12,0,0,1,2.066-.193c5.461,2.111,10.941,4.175,16.414,6.255,1.094.416,1.25.63,1.2,1.783C-4536.358-1860.3-4536.481-1857.569-4536.539-1856.2Zm-34.407,26.375c.362-.2.609-.332.848-.475q7.287-4.354,14.571-8.713,6.981-4.176,13.963-8.351a.906.906,0,0,0,.572-.818c.147-4.251.328-8.5.5-12.752.026-.675.018-.677-.64-.928-4.221-1.607-8.446-3.2-12.66-4.829a1.407,1.407,0,0,0-1.381.125q-13.24,7.95-26.5,15.871c-.218.13-.49.206-.623.482.22.139.439.278.66.414,2.654,1.634,5.3,3.278,7.966,4.9a5.2,5.2,0,0,1,2.679,4.695c.012,2.011.038,4.022.049,6.033C-4570.94-1832.766-4570.946-1831.357-4570.946-1829.827Z"/><path class="a" d="M-4654.427-1854.835q-.164-4.136-.328-8.272c-.043-1.044.107-1.287,1.123-1.674q8.322-3.166,16.641-6.34a1.777,1.777,0,0,1,1.709.135q16.251,9.744,32.515,19.462a1.4,1.4,0,0,1,.854,1.2,1.37,1.37,0,0,1-.808,1.23q-3.021,1.842-6.029,3.7c-2.054,1.262-4.1,2.541-6.169,3.775a1.769,1.769,0,0,0-.981,1.692c0,4.488-.045,8.976-.077,13.464,0,.542-.069,1.087-.021,1.623a1.231,1.231,0,0,1-1.962,1.077c-2.7-1.664-5.437-3.265-8.158-4.894l-26.78-16.031c-.2-.122-.41-.234-.606-.364a1.3,1.3,0,0,1-.566-1.129q-.166-4.329-.351-8.658Zm45.71,4.626a1.6,1.6,0,0,0-.709-.538c-8.565-5.129-17.144-10.236-25.684-15.4a2.851,2.851,0,0,0-2.878-.27c-3.921,1.576-7.892,3.034-11.844,4.536-.746.284-.746.284-.7,1.112.032.618.069,1.235.1,1.853.149,3.53.309,7.059.429,10.589a1.08,1.08,0,0,0,.644,1.019c1.768,1.026,3.512,2.092,5.266,3.141q11.6,6.94,23.207,13.878c.229.136.433.354.77.317.009-.184.022-.337.023-.49.028-3.172.088-6.344.07-9.515a5.408,5.408,0,0,1,2.821-5.015c2.315-1.387,4.6-2.816,6.9-4.229C-4609.777-1849.548-4609.25-1849.878-4608.717-1850.209Z"/><path class="a" d="M-4611.2-1794.276q0-9.441,0-18.88c0-.233-.01-.465.006-.7a1.164,1.164,0,0,1,1.781-1.033c1.17.532,2.322,1.1,3.48,1.661,3.333,1.6,6.669,3.2,9.993,4.818a1.792,1.792,0,0,0,1.719-.029q6.5-3.175,13.028-6.313a3.693,3.693,0,0,1,.5-.234,1.157,1.157,0,0,1,1.575,1.033c.019.2.01.412.01.619q0,18.455.016,36.909a2.091,2.091,0,0,1-.957,1.879c-4.68,3.44-9.33,6.918-13.991,10.383-.934.7-1.193.7-2.18.056-4.689-3.068-9.37-6.148-14.073-9.195a1.829,1.829,0,0,1-.952-1.711c.026-5.262.014-10.524.014-15.786v-3.48Zm4.171-14.954c-.014.282-.028.434-.028.586q-.01,15.974-.032,31.948a1.04,1.04,0,0,0,.57.983c3.557,2.309,7.1,4.642,10.652,6.957.7.454.469.508,1.2-.032,3.612-2.681,7.215-5.373,10.837-8.042a1.26,1.26,0,0,0,.6-1.141q-.026-15.24-.016-30.479a1.179,1.179,0,0,0-.069-.667,1.227,1.227,0,0,0-.66.246q-4.288,2.065-8.571,4.144a5.535,5.535,0,0,1-5.087.005q-3.186-1.543-6.381-3.069C-4604.984-1808.254-4605.949-1808.714-4607.027-1809.23Z"/><path class="a" d="M-4578.97-1830.195c0,2.553-.022,5.106.011,7.659a2.192,2.192,0,0,1-1.26,2.128q-6.795,3.795-13.556,7.648a2.431,2.431,0,0,1-2.658-.005q-6.756-3.861-13.554-7.651a2.205,2.205,0,0,1-1.253-2.133q.034-7.7,0-15.4a2.211,2.211,0,0,1,1.262-2.129q6.795-3.8,13.556-7.648a2.429,2.429,0,0,1,2.658.009q6.723,3.839,13.489,7.607a2.287,2.287,0,0,1,1.319,2.251C-4579-1835.3-4578.97-1832.748-4578.97-1830.195Zm-19.318-3.2c-3.013,0-5.829.009-8.645-.009-.426,0-.517.187-.6.534a11.625,11.625,0,0,0,2.18,9.861c.132.179.227.4.515.491Zm6.33,6.061a.324.324,0,0,0,.328.127c2.714,0,5.429-.01,8.144.014.458,0,.577-.2.653-.564a11.648,11.648,0,0,0,.2-4.069,12.275,12.275,0,0,0-2.834-6.28Zm-7.2-1.317c-.1.062-.126.071-.138.091-1.423,2.346-2.838,4.7-4.272,7.036-.17.277-.07.408.131.574a13.213,13.213,0,0,0,1.926,1.346,12.621,12.621,0,0,0,8.7,1.455C-4594.949-1821.689-4597.047-1825.158-4599.161-1828.653Zm1.69-13.779,6.339,10.49a2.4,2.4,0,0,0,.233-.27c1.353-2.24,2.691-4.488,4.063-6.717.23-.373.09-.535-.178-.756a12.7,12.7,0,0,0-8.038-2.978A11.724,11.724,0,0,0-4597.471-1842.432Zm2.131,16.814a1.434,1.434,0,0,0,.077.3c1.272,2.109,2.556,4.211,3.811,6.329.222.375.452.329.775.2a12.486,12.486,0,0,0,6.989-6.384c.068-.141.154-.274.033-.447Zm.474-9.365c-.133-.236-.2-.369-.28-.5q-1.809-2.991-3.618-5.983c-.334-.55-.341-.555-.978-.308a12.507,12.507,0,0,0-6.5,5.5,4.9,4.9,0,0,0-.594,1.29Z"/><path class="a" d="M-4579.666-1766.142c-.054.151-.11.323-.177.491l-14.705,36.921c-.048.119-.093.241-.15.357a.575.575,0,0,1-.548.373.565.565,0,0,1-.531-.4c-.094-.212-.174-.431-.259-.647q-7.217-18.264-14.432-36.528c-.038-.1-.064-.2-.108-.29a.556.556,0,0,1,.122-.766.663.663,0,0,1,.8.057c.975.614,1.957,1.217,2.937,1.825,3.627,2.252,7.262,4.493,10.874,6.768a1.2,1.2,0,0,0,1.484,0q6.637-4.2,13.309-8.358a3.356,3.356,0,0,1,.612-.349A.563.563,0,0,1-4579.666-1766.142Zm-8.01,8.976-.1-.114c-.22.13-.444.256-.661.391q-1.965,1.227-3.927,2.46a4.774,4.774,0,0,1-5.483-.006c-1.44-.906-2.89-1.8-4.337-2.691-.161-.1-.33-.185-.638-.356l7.606,19.247Z"/><path class="a" d="M-4685.2-1882.945q1.479.259,2.957.518l13.615,2.4,14.628,2.575q4.473.788,8.947,1.578a1.859,1.859,0,0,1,.46.1.6.6,0,0,1,.139,1.026,3.456,3.456,0,0,1-.689.371c-4.6,2.183-9.185,4.384-13.8,6.523a1.447,1.447,0,0,0-.979,1.587c.127,5.078.207,10.157.3,15.236q.007.348,0,.7a.5.5,0,0,1-.324.488.546.546,0,0,1-.65-.128c-.121-.135-.232-.28-.344-.423q-12.215-15.606-24.427-31.214a3.74,3.74,0,0,1-.372-.5C-4685.981-1882.548-4685.714-1882.946-4685.2-1882.945Zm8.589,5.626a1.029,1.029,0,0,0,.34.647q6.078,7.763,12.164,15.519a.1.1,0,0,0,.073.017c.1-.009-.016-.079-.009-.075,0-1.854,0-3.758,0-5.661a4.507,4.507,0,0,1,2.8-4.375c1.516-.72,3.035-1.433,4.546-2.161.133-.064.386-.063.343-.352Z"/><path class="a" d="M-4531.232-1858.738c.037-2.552.044-5.1.127-7.656a1.341,1.341,0,0,0-.943-1.452c-4.732-2.2-9.44-4.457-14.155-6.7-.346-.164-.825-.256-.767-.756.064-.55.576-.5.983-.574q11.436-2.008,22.872-4.021,8.441-1.484,16.881-2.97a2.444,2.444,0,0,1,.466-.077.53.53,0,0,1,.509.8,3.712,3.712,0,0,1-.416.563q-12.185,15.575-24.372,31.149c-.064.082-.13.162-.191.246a.666.666,0,0,1-.8.347c-.35-.117-.345-.417-.341-.706.011-.877.031-1.753.033-2.63.006-1.856,0-3.712,0-5.568Zm16.87-18.409-.073-.166-20.27,3.563c.131.284.349.318.525.4,1.514.722,3.038,1.424,4.542,2.164a4.431,4.431,0,0,1,2.664,4.145c.014.772-.036,1.544-.041,2.317-.008,1.194,0,2.389,0,3.748Z"/><path class="a" d="M-4560.294-1912.582q-3.22-1.8-6.442-3.6-3.186-1.791-6.365-3.595c-4.844-2.735-9.695-5.459-14.529-8.211a14.187,14.187,0,0,0-6.5-1.956,13.652,13.652,0,0,0-7.412,1.808q-7.736,4.365-15.476,8.721-3.837,2.153-7.672,4.306a45.388,45.388,0,0,0-4.357,2.563c-.21,0-.419,0-.628,0a2.1,2.1,0,0,1-2.044-1.42,2,2,0,0,1,.933-2.339c.155-.1.318-.182.477-.272q13.321-7.511,26.639-15.025A17.947,17.947,0,0,1-4595.1-1934a17.2,17.2,0,0,1,8.941,2.187q13.635,7.674,27.25,15.382a2.1,2.1,0,0,1,1.189,1.541,2.019,2.019,0,0,1-1.942,2.335A6.09,6.09,0,0,1-4560.294-1912.582Z"/><path class="a" d="M-4539.224-1767.431a4.355,4.355,0,0,1,1.286-1q13.324-7.427,26.641-14.865a13.189,13.189,0,0,0,6.491-7.942,12.572,12.572,0,0,0,.527-3.585c.025-5.647.035-11.294.062-16.941.017-3.429.057-6.858.081-10.287a2.385,2.385,0,0,0-.048-.844c.024-.823.054-1.646.069-2.469a2.038,2.038,0,0,1,2-2.153,2.063,2.063,0,0,1,2.116,2.137c.007,2.785-.025,5.57-.044,8.355-.02,2.939-.052,5.879-.065,8.818-.02,4.41.021,8.821-.053,13.23a16.7,16.7,0,0,1-8.892,15.057c-5.726,3.288-11.527,6.451-17.3,9.669q-4.875,2.719-9.748,5.442a2.4,2.4,0,0,1-1.651.388,2.021,2.021,0,0,1-1.651-2.423A5.4,5.4,0,0,1-4539.224-1767.431Z"/><path class="a" d="M-4686.843-1825.064c-.007,1.391-.025,2.782-.02,4.173q.025,7.542.064,15.084c.021,3.763-.017,7.53.1,11.29a12.609,12.609,0,0,0,6.776,11.089c4.958,2.836,9.97,5.581,14.959,8.366q5.628,3.142,11.257,6.286c.181.1.375.181.563.27.219.14.441.276.656.421a1.965,1.965,0,0,1,.656,2.66,2.078,2.078,0,0,1-2.665.842,5.992,5.992,0,0,1-.556-.3q-13.424-7.491-26.843-14.987a16.95,16.95,0,0,1-8.514-11.115,14.974,14.974,0,0,1-.434-3.523q-.057-9.63-.116-19.262c-.021-3.713-.028-7.427-.041-11.141,0-.206-.007-.413,0-.619a2.037,2.037,0,0,1,2.011-1.99,2.092,2.092,0,0,1,2.1,1.835C-4686.859-1825.476-4686.856-1825.27-4686.843-1825.064Z"/></g></svg>
