<svg xmlns="http://www.w3.org/2000/svg" width="2035.097" height="168.475" fill="#ffffff" viewBox="0 0 2035.097 168.475"><defs><style>.a{fill:#ffffff;}</style></defs><g transform="translate(-691.435 208.804)"><path class="a" d="M794.375-40.329H740.1L727.618-68.375h66.757a19.964,19.964,0,0,0,15.434-6.64,43.3,43.3,0,0,0,9.452-17.839,83.5,83.5,0,0,0,3.322-23.685,82.8,82.8,0,0,0-3.322-23.487,43.328,43.328,0,0,0-9.452-17.839,19.971,19.971,0,0,0-15.434-6.64H739.581a21,21,0,0,0-10.485,2.577,29.006,29.006,0,0,0-8.751,8.176,39.111,39.111,0,0,0-6.092,11.743,47.172,47.172,0,0,0-1.92,14.073v24.478h-20.9v-24.478a79.379,79.379,0,0,1,6.5-32.506q6.5-14.665,17.427-23.388a37.913,37.913,0,0,1,24.221-8.721h54.794a37.31,37.31,0,0,1,20.9,6.144q9.378,6.146,15.952,17.938,12.035,21.7,12.036,51.93t-12.036,51.93q-6.574,11.892-15.952,18.087A37.1,37.1,0,0,1,794.375-40.329Z"/><path class="a" d="M1003.874-40.329H916.662q-12.7,0-20.972-6.144a53.2,53.2,0,0,1-14.917-17.244q-12.332-22.3-12.332-52.921,0-30.92,12.259-53.021,6.351-11.3,15.434-17.1a36.945,36.945,0,0,1,20.307-5.8h70.744l12.479,28.046H917.032a20.323,20.323,0,0,0-9.822,2.279,25.239,25.239,0,0,0-7.975,7.334q-10.707,14.37-10.708,39.443a72.581,72.581,0,0,0,5.539,28.938,34.645,34.645,0,0,0,9.3,13.082A20.543,20.543,0,0,0,917.1-68.474h86.769Z"/><path class="a" d="M1097.288-40.329h-21.12l.074-124.077h-51.249l-12.554-28.145h137.722l12.554,28.145h-65.354Z"/><path class="a" d="M1280.645-40.329h-24.59l-51.913-117.14-39.581,88.995h35.814l12.479,28.145h-85.585q44.157-99.2,67.863-152.222H1213Z"/><path class="a" d="M1349.025-40.329h-18.018l-67.642-152.222h24.59L1340.016-75.51l39.433-89h-25.92l-12.405-28.046h43.643l15.95,35.677Z"/><path class="a" d="M1441.479-40.329h-20.9V-192.551h20.9Z"/><path class="a" d="M1473.528-148.153h-3.765v-11q.957-.794,1.957-1.586a5.4,5.4,0,0,0,1.587-2.676,30.031,30.031,0,0,0,.886-6.244,8.6,8.6,0,0,0-.369-2.923,4.847,4.847,0,0,0-1.4-1.834h-8.861V-208.8h27.765q0,9.118.148,13.527t.148,8.969a114.278,114.278,0,0,1-.812,13.676,47.7,47.7,0,0,1-3.693,13.577,20.676,20.676,0,0,1-5.834,7.978A12.114,12.114,0,0,1,1473.528-148.153Z"/><path class="a" d="M1637.981-40.329h-112.1L1513.4-68.375h119.629a6.805,6.805,0,0,0,5.392-2.378,16.793,16.793,0,0,0,3.4-7.136,31.954,31.954,0,0,0,.96-7.73,35.678,35.678,0,0,0-.923-8.126,12.939,12.939,0,0,0-3.286-6.343,7.131,7.131,0,0,0-5.539-2.18h-98.214a16.361,16.361,0,0,1-11.076-4.262,31.668,31.668,0,0,1-7.68-10.406q-6.277-13.278-6.277-31.019a75.657,75.657,0,0,1,1.92-17.244q3.324-16.054,12.11-23.488a16.868,16.868,0,0,1,11-3.864h111.95q6.5,13.973,12.775,28.046H1539.915a7.447,7.447,0,0,0-3.139.545,7.343,7.343,0,0,0-2.326,1.933,16.2,16.2,0,0,0-3.323,7.234l-.073.4a24.839,24.839,0,0,0-1.034,7.333,31.56,31.56,0,0,0,.959,7.829v.1a14.675,14.675,0,0,0,3.176,6.541,6.966,6.966,0,0,0,5.538,2.28h98.288q9.009,0,15.582,9.216,5.388,7.731,7.753,19.622a87.575,87.575,0,0,1,1.7,17.344,75.452,75.452,0,0,1-2.7,20.365,45.134,45.134,0,0,1-8.233,16.5Q1646.1-40.33,1637.981-40.329Z"/><path class="a" d="M1781.684-40.329h-59.15q-3.174-6.837-12.775-28.145h71.925a19.467,19.467,0,0,0,12.812-4.707,34.389,34.389,0,0,0,9.157-12.388,40.692,40.692,0,0,0,3.507-17.1v-89.886h20.973v89.886a75.455,75.455,0,0,1-6.315,31.416A60.361,60.361,0,0,1,1805.093-48.8,36.131,36.131,0,0,1,1781.684-40.329Z"/><path class="a" d="M1988.968-164.505H1855.824l-12.479-28.046H1976.34Q1982.614-178.478,1988.968-164.505Zm-19.422,62.336H1858.335v-28.046h98.731Zm19.348,61.84H1858.335V-68.474H1976.34Z"/><path class="a" d="M2152.018-40.329h-18.536q-1.109-1.091-101.168-111.788V-40.329h-20.972V-192.551h18.535L2131.045-80.664V-192.551h20.973Z"/><path class="a" d="M2221.728-40.329h-20.973V-192.551h20.973Zm111.8,0h-34.486l-1.033-1.089q-67.569-71.85-71.188-75.617l65.8-75.516h32.788l-64.984,74.228Z"/><path class="a" d="M2369.122-40.329h-20.9V-192.551h20.9Z"/><path class="a" d="M2543.692-40.329h-18.535q-1.109-1.091-101.168-111.788V-40.329h-20.972V-192.551h18.535L2522.72-80.664V-192.551h20.972Z"/><path class="a" d="M2701.5-40.329H2589.4l-12.48-28.046h119.629a6.8,6.8,0,0,0,5.391-2.378,16.793,16.793,0,0,0,3.4-7.136,31.96,31.96,0,0,0,.96-7.73,35.733,35.733,0,0,0-.923-8.126,12.938,12.938,0,0,0-3.286-6.343,7.131,7.131,0,0,0-5.539-2.18h-98.214a16.359,16.359,0,0,1-11.076-4.262,31.671,31.671,0,0,1-7.681-10.406q-6.276-13.278-6.276-31.019a75.6,75.6,0,0,1,1.92-17.244q3.322-16.054,12.11-23.488a16.864,16.864,0,0,1,11-3.864h111.949q6.5,13.973,12.776,28.046H2603.433a7.447,7.447,0,0,0-3.139.545,7.331,7.331,0,0,0-2.326,1.933,16.193,16.193,0,0,0-3.323,7.234l-.074.4a24.871,24.871,0,0,0-1.034,7.333,31.509,31.509,0,0,0,.96,7.829v.1a14.664,14.664,0,0,0,3.176,6.541,6.965,6.965,0,0,0,5.538,2.28H2701.5q9.009,0,15.581,9.216,5.39,7.731,7.754,19.622a87.566,87.566,0,0,1,1.7,17.344,75.447,75.447,0,0,1-2.7,20.365,45.132,45.132,0,0,1-8.233,16.5Q2709.62-40.33,2701.5-40.329Z"/></g></svg>
