<svg xmlns="http://www.w3.org/2000/svg" width="4013.565" height="339.804" fill="#ffffff" viewBox="0 0 4013.565 339.804"><defs><style>.a{fill:#fff;}</style></defs><g transform="translate(-691.435 208.804)"><path class="a" d="M894.451,131H787.409L762.795,74.432H894.451q18.492,0,30.438-13.391,12.668-14.191,18.641-35.98a172.023,172.023,0,0,0,6.552-47.772,170.577,170.577,0,0,0-6.552-47.373q-5.975-21.785-18.641-35.98-11.946-13.389-30.438-13.392H786.388a40.7,40.7,0,0,0-20.679,5.2q-9.035,5.2-17.259,16.49a79.585,79.585,0,0,0-12.014,23.686A97.126,97.126,0,0,0,732.65-45.7V3.673H691.435V-45.7q0-35.98,12.815-65.563t34.37-47.172q21.552-17.588,47.768-17.59H894.451a72.415,72.415,0,0,1,41.213,12.392q18.5,12.4,31.459,36.18,23.734,43.774,23.737,104.74T967.123,82.028q-12.966,23.986-31.459,36.479A72.009,72.009,0,0,1,894.451,131Z"/><path class="a" d="M1307.619,131h-172q-25.05,0-41.359-12.393-17.77-13.389-29.419-34.779-24.322-44.976-24.321-106.739,0-62.364,24.176-106.939,12.523-22.786,30.438-34.48a71.677,71.677,0,0,1,40.05-11.693H1274.7l24.612,56.567H1136.352a39.354,39.354,0,0,0-19.371,4.6q-8.3,4.6-15.727,14.791-21.118,28.984-21.118,79.555,0,32.38,10.924,58.366,6.843,16.39,18.348,26.384a39.966,39.966,0,0,0,27.089,9.994h171.122Z"/><path class="a" d="M1491.848,131H1450.2l.146-250.256H1349.27l-24.758-56.767h271.611l24.758,56.767H1491.993Z"/><path class="a" d="M1853.459,131h-48.5L1702.582-105.264l-78.061,179.5h70.632L1719.765,131h-168.79q87.087-200.082,133.838-307.023h35.245Z"/><path class="a" d="M1988.318,131h-35.536l-133.4-307.023h48.495L1970.549,60.041l77.77-179.5H1997.2l-24.465-56.567h86.071l31.456,71.959Z"/><path class="a" d="M2170.653,131h-41.215V-176.023h41.215Z"/><path class="a" d="M2233.859-86.475h-7.426v-22.187q1.888-1.6,3.859-3.2a10.916,10.916,0,0,0,3.13-5.4q1.164-3.795,1.749-12.593a17.708,17.708,0,0,0-.728-5.9,9.758,9.758,0,0,0-2.768-3.7H2214.2V-208.8h54.759q0,18.392.29,27.284t.293,18.089a235.621,235.621,0,0,1-1.6,27.584,97.9,97.9,0,0,1-7.282,27.384,41.674,41.674,0,0,1-11.506,16.091A23.581,23.581,0,0,1,2233.859-86.475Z"/><path class="a" d="M2558.189,131H2337.115L2312.5,74.432H2548.43a13.293,13.293,0,0,0,10.634-4.8,34.211,34.211,0,0,0,6.7-14.391,65.914,65.914,0,0,0,1.893-15.591,73.632,73.632,0,0,0-1.82-16.391,26.284,26.284,0,0,0-6.481-12.793q-3.932-4.393-10.924-4.4H2354.736a31.869,31.869,0,0,1-21.845-8.6q-8.886-7.8-15.147-20.988-12.379-26.783-12.378-62.565a155.858,155.858,0,0,1,3.786-34.779q6.555-32.38,23.884-47.373a32.8,32.8,0,0,1,21.7-7.795h220.783q12.814,28.184,25.2,56.567H2364.785a14.38,14.38,0,0,0-6.19,1.1,14.517,14.517,0,0,0-4.587,3.9q-4.664,5.6-6.554,14.591l-.145.8a51.189,51.189,0,0,0-2.039,14.791,64.929,64.929,0,0,0,1.893,15.791v.2a29.841,29.841,0,0,0,6.263,13.193q3.932,4.6,10.922,4.6h193.841q17.767,0,30.729,18.59,10.627,15.591,15.292,39.577a180.534,180.534,0,0,1,3.349,34.98,155.426,155.426,0,0,1-5.316,41.076q-5.317,19.49-16.237,33.282Q2574.207,131,2558.189,131Z"/><path class="a" d="M2841.595,131H2724.942q-6.261-13.791-25.2-56.768h141.849a37.891,37.891,0,0,0,25.268-9.493q11.141-9.492,18.06-24.987a83.668,83.668,0,0,0,6.916-34.479v-181.3H2933.2V5.273q0,35.181-12.454,63.363t-32.985,45.274Q2867.227,131,2841.595,131Z"/><path class="a" d="M3250.4-119.456H2987.813L2963.2-176.023h262.29Q3237.866-147.639,3250.4-119.456Zm-38.3,125.728H2992.764V-50.3H3187.48ZM3250.249,131H2992.764V74.232h232.727Z"/><path class="a" d="M3571.958,131H3535.4q-2.187-2.2-199.521-225.47V131H3294.52V-176.023h36.555L3530.6,49.647v-225.67h41.362Z"/><path class="a" d="M3709.438,131h-41.362V-176.023h41.362Zm220.492,0h-68.013l-2.038-2.2Q3726.622-16.114,3719.485-23.711l129.761-152.312h64.664L3785.75-26.309Z"/><path class="a" d="M4000.125,131H3958.91V-176.023h41.215Z"/><path class="a" d="M4344.408,131h-36.554q-2.187-2.2-199.521-225.47V131h-41.362V-176.023h36.555l199.52,225.67v-225.67h41.362Z"/><path class="a" d="M4655.63,131H4434.556l-24.614-56.568h235.929a13.292,13.292,0,0,0,10.634-4.8,34.215,34.215,0,0,0,6.7-14.391,65.876,65.876,0,0,0,1.893-15.591,73.561,73.561,0,0,0-1.82-16.391,26.284,26.284,0,0,0-6.481-12.793q-3.932-4.393-10.924-4.4H4452.177a31.869,31.869,0,0,1-21.845-8.6q-8.886-7.8-15.147-20.988-12.379-26.783-12.378-62.565a155.873,155.873,0,0,1,3.786-34.779q6.555-32.38,23.884-47.373a32.8,32.8,0,0,1,21.7-7.795H4672.96q12.814,28.184,25.195,56.567H4462.226a14.379,14.379,0,0,0-6.19,1.1,14.509,14.509,0,0,0-4.587,3.9q-4.664,5.6-6.554,14.591l-.145.8a51.232,51.232,0,0,0-2.039,14.791,64.929,64.929,0,0,0,1.893,15.791v.2a29.844,29.844,0,0,0,6.263,13.193q3.931,4.6,10.922,4.6H4655.63q17.768,0,30.729,18.59,10.627,15.591,15.292,39.577A180.534,180.534,0,0,1,4705,42.651a155.436,155.436,0,0,1-5.316,41.076q-5.317,19.49-16.237,33.282Q4671.648,131,4655.63,131Z"/></g></svg>
