<svg xmlns="http://www.w3.org/2000/svg" width="661.673" height="69.161" viewBox="0 0 661.673 69.161"><g transform="translate(-308.327 -69.839)"><path d="M341.8,139H324.15l-4.058-11.513h21.7a5.96,5.96,0,0,0,5.018-2.726,19.643,19.643,0,0,0,3.074-7.323,43.943,43.943,0,0,0,0-19.365,19.643,19.643,0,0,0-3.074-7.323,5.96,5.96,0,0,0-5.018-2.726H323.981a5.741,5.741,0,0,0-3.409,1.058,10.726,10.726,0,0,0-2.845,3.357,17.913,17.913,0,0,0-1.981,4.82,24.166,24.166,0,0,0-.624,5.777v10.049h-6.8V103.036a40.1,40.1,0,0,1,2.113-13.344,25.282,25.282,0,0,1,5.666-9.6,10.891,10.891,0,0,1,7.875-3.58H341.8a10.4,10.4,0,0,1,6.8,2.523,19.639,19.639,0,0,1,5.186,7.363q3.913,8.91,3.914,21.318t-3.914,21.318a19.8,19.8,0,0,1-5.186,7.424A10.351,10.351,0,0,1,341.8,139Z"/><path d="M409.911,139H381.556a9.576,9.576,0,0,1-6.819-2.522,21.2,21.2,0,0,1-4.85-7.079q-4.01-9.155-4.009-21.725,0-12.693,3.985-21.765a18.435,18.435,0,0,1,5.018-7.018,10.264,10.264,0,0,1,6.6-2.38h23l4.057,11.513H381.676a5.515,5.515,0,0,0-3.193.936,9.265,9.265,0,0,0-2.593,3.011q-3.482,5.9-3.482,16.191a36.709,36.709,0,0,0,1.8,11.88,14.629,14.629,0,0,0,3.025,5.37,5.918,5.918,0,0,0,4.466,2.034h28.211Z"/><path d="M440.283,139h-6.867l.024-50.935H416.777L412.7,76.511h44.777l4.082,11.554H440.307Z"/><path d="M499.9,139H491.9L475.024,90.913l-12.869,36.533H473.8L477.857,139H450.03Q464.388,98.276,472.1,76.511h5.81Z"/><path d="M522.13,139h-5.858L494.28,76.511h7.995L519.2,124.558l12.821-36.534h-8.427l-4.034-11.513h14.19l5.186,14.646Z"/><path d="M552.19,139H545.4V76.511h6.795Z"/><path d="M562.61,94.737h-1.224V90.221q.312-.326.636-.651a2.369,2.369,0,0,0,.516-1.1,15.345,15.345,0,0,0,.288-2.563,4.379,4.379,0,0,0-.12-1.2,2,2,0,0,0-.456-.753h-2.881V69.839H568.4q0,3.743.048,5.553t.048,3.682q0,2.849-.264,5.614a23.738,23.738,0,0,1-1.2,5.574,8.663,8.663,0,0,1-1.9,3.275A3.5,3.5,0,0,1,562.61,94.737Z"/><path d="M616.079,139H579.633l-4.058-11.513H614.47a2.045,2.045,0,0,0,1.753-.977,7.762,7.762,0,0,0,1.1-2.929,16.412,16.412,0,0,0,.312-3.173,18.365,18.365,0,0,0-.3-3.336,5.877,5.877,0,0,0-1.068-2.6,2.1,2.1,0,0,0-1.8-.9H582.538a4.761,4.761,0,0,1-3.6-1.749,13.269,13.269,0,0,1-2.5-4.272,36.262,36.262,0,0,1-2.04-12.734,38.892,38.892,0,0,1,.624-7.078q1.08-6.591,3.937-9.642a4.833,4.833,0,0,1,3.578-1.587h36.4q2.112,5.736,4.153,11.513h-38.9a1.978,1.978,0,0,0-1.02.224,2.6,2.6,0,0,0-.756.794,7.529,7.529,0,0,0-1.081,2.969l-.024.163a12.742,12.742,0,0,0-.336,3.011,16.214,16.214,0,0,0,.312,3.214v.04a6.753,6.753,0,0,0,1.033,2.685,2.069,2.069,0,0,0,1.8.936h31.957q2.93,0,5.066,3.784a24.621,24.621,0,0,1,2.521,8.055,45.1,45.1,0,0,1,.552,7.119,38.69,38.69,0,0,1-.876,8.361,20.759,20.759,0,0,1-2.677,6.773Q618.719,139,616.079,139Z"/><path d="M662.8,139H643.569q-1.032-2.807-4.153-11.554H662.8a5.616,5.616,0,0,0,4.165-1.932,14.376,14.376,0,0,0,2.978-5.086,20.518,20.518,0,0,0,1.14-7.017v-36.9H677.9v36.9a38.1,38.1,0,0,1-2.053,12.9,25.149,25.149,0,0,1-5.438,9.215A10.39,10.39,0,0,1,662.8,139Z"/><path d="M730.2,88.024H686.906l-4.057-11.513h43.24Q728.131,82.289,730.2,88.024Zm-6.314,25.59H687.723V102.1h32.1ZM730.171,139H687.723V127.446h38.366Z"/><path d="M783.208,139h-6.027q-.36-.447-32.893-45.89V139H737.47V76.511H743.5l32.893,45.931V76.511h6.819Z"/><path d="M805.872,139h-6.818V76.511h6.818Zm36.35,0H831.01l-.336-.448q-21.969-29.495-23.145-31.04l21.392-31h10.66l-21.128,30.472Z"/><path d="M853.795,139H847V76.511h6.795Z"/><path d="M910.553,139h-6.026q-.36-.447-32.893-45.89V139h-6.819V76.511h6.027l32.892,45.931V76.511h6.819Z"/><path d="M961.861,139H925.415l-4.058-11.513h38.9a2.045,2.045,0,0,0,1.753-.977,7.761,7.761,0,0,0,1.1-2.929,16.407,16.407,0,0,0,.312-3.173,18.365,18.365,0,0,0-.3-3.336,5.876,5.876,0,0,0-1.068-2.6,2.1,2.1,0,0,0-1.8-.9H928.32a4.761,4.761,0,0,1-3.6-1.749,13.268,13.268,0,0,1-2.5-4.272,36.263,36.263,0,0,1-2.04-12.734,38.892,38.892,0,0,1,.624-7.078q1.08-6.591,3.937-9.642a4.833,4.833,0,0,1,3.578-1.587h36.4q2.112,5.736,4.154,11.513h-38.9a1.978,1.978,0,0,0-1.02.224,2.6,2.6,0,0,0-.756.794,7.544,7.544,0,0,0-1.081,2.969l-.024.163a12.742,12.742,0,0,0-.336,3.011,16.214,16.214,0,0,0,.312,3.214v.04a6.769,6.769,0,0,0,1.033,2.685,2.069,2.069,0,0,0,1.8.936h31.957q2.93,0,5.066,3.784a24.6,24.6,0,0,1,2.521,8.055,45.1,45.1,0,0,1,.552,7.119,38.694,38.694,0,0,1-.876,8.361,20.762,20.762,0,0,1-2.677,6.773Q964.5,139,961.861,139Z"/></g></svg>
